<?xml version="1.0" encoding="UTF-8"?>
<svg version="1.1" xmlns="http://www.w3.org/2000/svg" width="126" height="131">
<path d="M0 0 C41.58 0 83.16 0 126 0 C126 43.23 126 86.46 126 131 C84.42 131 42.84 131 0 131 C0 87.77 0 44.54 0 0 Z " fill="#0C0C0E" transform="translate(0,0)"/>
<path d="M0 0 C41.58 0 83.16 0 126 0 C126 43.23 126 86.46 126 131 C84.42 131 42.84 131 0 131 C0 87.77 0 44.54 0 0 Z M17 24 C6.32949799 37.20062104 2.02323679 52.21073055 3 69 C4.85838391 84.12281218 11.12627827 96.4119277 22 107 C22.60199219 107.63421875 23.20398438 108.2684375 23.82421875 108.921875 C34.76514127 119.64920033 50.0608626 123.42714132 64.91967773 123.43945312 C80.42824865 123.01827601 94.58923994 116.41055128 105.8125 105.8125 C117.16428519 93.79104115 123.86673525 78.34220258 123.44897461 61.71972656 C122.64842558 46.61516813 116.26075348 31.13621003 105.609375 20.24609375 C93.18647775 9.5527316 79.64989637 3.8246301 63.25 3.8125 C62.3940625 3.80025391 61.538125 3.78800781 60.65625 3.77539062 C43.66727524 3.73677932 28.28549343 11.35436567 17 24 Z " fill="#121316" transform="translate(0,0)"/>
<path d="M0 0 C12.01461258 9.02973227 21.43746773 23.18794763 23.74609375 38.23046875 C25.45229064 56.8411394 21.78400829 73.17964526 9.59765625 87.90234375 C-1.23586679 99.49946313 -15.39420813 107.37556546 -31.4609375 108.33984375 C-48.23198232 108.9022282 -62.59388671 104.78389413 -75.4375 93.5 C-76.97622376 92.01835793 -78.49916347 90.5200078 -80 89 C-80.84304687 88.18982422 -80.84304687 88.18982422 -81.703125 87.36328125 C-91.81625558 76.79772115 -95.95061985 61.61719786 -96.375 47.375 C-95.93787027 31.04224383 -88.70599574 15.21123757 -77.0625 3.8125 C-55.10802019 -15.17433978 -23.76673844 -16.50843054 0 0 Z M-76 13 C-86.4483539 25.73017832 -90.05580254 38.66019885 -89 55 C-86.8336726 69.9822475 -79.28685663 83.02210085 -67.15625 92.13671875 C-53.96617083 100.77911953 -40.67764515 103.96959846 -24.9375 101.3125 C-9.32180206 97.66207711 3.29477804 88.71689322 11.828125 75.078125 C18.37154316 62.817157 20.57298997 47.19267689 16.8125 33.625 C16.24767867 32.06848776 15.64313611 30.5258209 15 29 C14.67128906 28.18273438 14.34257813 27.36546875 14.00390625 26.5234375 C7.54051677 12.07586102 -4.55020562 3.071359 -18.765625 -2.8359375 C-39.34160612 -10.24130269 -61.53499795 -2.30426838 -76 13 Z " fill="#1345DF" transform="translate(99,15)"/>
<path d="M0 0 C0.33 0 0.66 0 1 0 C1.01417969 0.74765625 1.02835938 1.4953125 1.04296875 2.265625 C1.1931818 8.44522786 1.1931818 8.44522786 4.25 13.5625 C6.79817028 14.8944981 9.27997253 16.06741915 12 17 C9 19 9 19 5.5625 19.5 C1.90360173 20.61581704 1.90360173 20.61581704 0.65625 23.3515625 C-0.34055585 25.87917733 -1.2264764 28.39596404 -2 31 C-2.33 31 -2.66 31 -3 31 C-3.07476562 30.32453125 -3.14953125 29.6490625 -3.2265625 28.953125 C-4.05552421 23.0737924 -4.05552421 23.0737924 -7.625 18.5 C-11.43179506 16.80809108 -14.92467227 15.84317125 -19 15 C-19 14.67 -19 14.34 -19 14 C-17.64455078 13.94392578 -17.64455078 13.94392578 -16.26171875 13.88671875 C-15.08222656 13.82097656 -13.90273438 13.75523438 -12.6875 13.6875 C-10.92986328 13.60048828 -10.92986328 13.60048828 -9.13671875 13.51171875 C-6.08029018 13.23695839 -6.08029018 13.23695839 -4.1875 11.78125 C-2.68832505 9.53248757 -2.02287037 7.41719136 -1.3125 4.8125 C-1.06113281 3.91144531 -0.80976562 3.01039062 -0.55078125 2.08203125 C-0.36902344 1.39496094 -0.18726562 0.70789062 0 0 Z " fill="#BFBFBF" transform="translate(64,47)"/>
<path d="M0 0 C1.65 0 3.3 0 5 0 C5.68707555 2.49064888 6 4.37886292 6 7 C6.99 5.02 7.98 3.04 9 1 C9.66 1 10.32 1 11 1 C11 1.66 11 2.32 11 3 C12.65 2.67 14.3 2.34 16 2 C15.484375 2.37125 14.96875 2.7425 14.4375 3.125 C12.63680017 5.03173152 12.63680017 5.03173152 13.3125 8.1875 C13.6528125 9.5796875 13.6528125 9.5796875 14 11 C13.01 10.67 12.02 10.34 11 10 C10.67 9.34 10.34 8.68 10 8 C9.67 8.33 9.34 8.66 9 9 C5.79950343 9.17299981 3.07045451 8.9097643 0 8 C0 5.36 0 2.72 0 0 Z " fill="#ACB3AF" transform="translate(63,20)"/>
<path d="M0 0 C3 1 3 1 4 3 C4.33 2.67 4.66 2.34 5 2 C8.20049657 1.82700019 10.92954549 2.0902357 14 3 C14 5.64 14 8.28 14 11 C12.35 11 10.7 11 9 11 C8 6.25 8 6.25 8 4 C5.89767656 6.8684413 5.89767656 6.8684413 5 10 C4.34 10 3.68 10 3 10 C2.67 9.34 2.34 8.68 2 8 C0.68 8.33 -0.64 8.66 -2 9 C-2 8.34 -2 7.68 -2 7 C-0.68 6.67 0.64 6.34 2 6 C1.34 4.02 0.68 2.04 0 0 Z " fill="#A9AFAC" transform="translate(49,96)"/>
<path d="M0 0 C2.5 0.25 2.5 0.25 4.5 2.25 C4.8125 4.75 4.8125 4.75 4.5 7.25 C1.5 9.25 1.5 9.25 -1.1875 8.875 C-1.950625 8.66875 -2.71375 8.4625 -3.5 8.25 C-4.125 5.375 -4.125 5.375 -4.5 2.25 C-2.5 0.25 -2.5 0.25 0 0 Z " fill="#B4BBB7" transform="translate(93.5,83.75)"/>
<path d="M0 0 C3.29714793 0.32971479 4.6226839 0.6226839 7 3 C6.625 5.625 6.625 5.625 6 8 C3.125 8.625 3.125 8.625 0 9 C-2 7 -2 7 -2.25 4.5 C-2 2 -2 2 0 0 Z " fill="#BABEB5" transform="translate(30,34)"/>
<path d="M0 0 C0.125 2.875 0.125 2.875 0 6 C-0.66 6.66 -1.32 7.32 -2 8 C-6.55555556 7.44444444 -6.55555556 7.44444444 -8 6 C-8.04080783 4.00041636 -8.04254356 1.99954746 -8 0 C-5.13822943 -1.43088528 -3.06624227 -0.59991697 0 0 Z " fill="#BBBDB4" transform="translate(61,21)"/>
<path d="M0 0 C3.125 0.375 3.125 0.375 6 1 C6.125 3.875 6.125 3.875 6 7 C5.34 7.66 4.68 8.32 4 9 C-0.55555556 8.44444444 -0.55555556 8.44444444 -2 7 C-2.1875 4.5625 -2.1875 4.5625 -2 2 C-1.34 1.34 -0.68 0.68 0 0 Z " fill="#B7BEB6" transform="translate(28,81)"/>
<path d="M0 0 C4.55555556 0.55555556 4.55555556 0.55555556 6 2 C6.1875 4.4375 6.1875 4.4375 6 7 C5.34 7.66 4.68 8.32 4 9 C-0.55555556 8.44444444 -0.55555556 8.44444444 -2 7 C-2.1875 4.5625 -2.1875 4.5625 -2 2 C-1.34 1.34 -0.68 0.68 0 0 Z " fill="#BFC3BB" transform="translate(67,98)"/>
<path d="M0 0 C4.55555556 0.55555556 4.55555556 0.55555556 6 2 C6.1875 4.4375 6.1875 4.4375 6 7 C5.34 7.66 4.68 8.32 4 9 C-0.55555556 8.44444444 -0.55555556 8.44444444 -2 7 C-2.1875 4.5625 -2.1875 4.5625 -2 2 C-1.34 1.34 -0.68 0.68 0 0 Z " fill="#BBC1BA" transform="translate(94,37)"/>
<path d="M0 0 C0.66 0 1.32 0 2 0 C2 2.97 2 5.94 2 9 C1.34 9 0.68 9 0 9 C-0.33 8.34 -0.66 7.68 -1 7 C-1.33 7.99 -1.66 8.98 -2 10 C-4.86697492 8.71480435 -6.97607712 7.42870746 -9 5 C-9 4.34 -9 3.68 -9 3 C-8.01 3.33 -7.02 3.66 -6 4 C-5.67 3.34 -5.34 2.68 -5 2 C-3.68 2.33 -2.36 2.66 -1 3 C-0.67 2.01 -0.34 1.02 0 0 Z " fill="#B3B7AB" transform="translate(49,22)"/>
<path d="M0 0 C2.86697492 1.28519565 4.97607712 2.57129254 7 5 C7 5.66 7 6.32 7 7 C5.68 6.34 4.36 5.68 3 5 C2.34 6.32 1.68 7.64 1 9 C0.34 8.34 -0.32 7.68 -1 7 C-1.33 8.32 -1.66 9.64 -2 11 C-2.66 11 -3.32 11 -4 11 C-4 8.03 -4 5.06 -4 2 C-3.01 2.33 -2.02 2.66 -1 3 C-0.67 2.01 -0.34 1.02 0 0 Z " fill="#ADBFBE" transform="translate(79,95)"/>
<path d="M0 0 C2.64 0 5.28 0 8 0 C7 3 7 3 5 4 C5.99 4.33 6.98 4.66 8 5 C8 5.99 8 6.98 8 8 C5.03 7.67 2.06 7.34 -1 7 C-0.67 6.01 -0.34 5.02 0 4 C0.66 3.67 1.32 3.34 2 3 C1.34 2.67 0.68 2.34 0 2 C0 1.34 0 0.68 0 0 Z " fill="#B9BAB7" transform="translate(99,62)"/>
<path d="M0 0 C2.64 0 5.28 0 8 0 C8 0.66 8 1.32 8 2 C7.01 2.66 6.02 3.32 5 4 C5.99 4.33 6.98 4.66 8 5 C8 5.66 8 6.32 8 7 C5.03 7 2.06 7 -1 7 C-0.34 5.68 0.32 4.36 1 3 C0.67 2.01 0.34 1.02 0 0 Z " fill="#BABCBA" transform="translate(20,58)"/>
<path d="M0 0 C0 1.98 0 3.96 0 6 C-2.70879335 7.35439668 -5.00933268 7.06501451 -8 7 C-8.33 5.02 -8.66 3.04 -9 1 C-8.34 1 -7.68 1 -7 1 C-7 2.32 -7 3.64 -7 5 C-6.34 5 -5.68 5 -5 5 C-5 3.68 -5 2.36 -5 1 C-2 0 -2 0 0 0 Z " fill="#A8B7B4" transform="translate(28,66)"/>
<path d="M0 0 C0.33 1.98 0.66 3.96 1 6 C0.34 6 -0.32 6 -1 6 C-1 4.68 -1 3.36 -1 2 C-1.66 2 -2.32 2 -3 2 C-3 3.32 -3 4.64 -3 6 C-4.65 6.33 -6.3 6.66 -8 7 C-8 5.02 -8 3.04 -8 1 C-5.29120665 -0.35439668 -2.99066732 -0.06501451 0 0 Z " fill="#B5B8A8" transform="translate(106,54)"/>
<path d="M0 0 C0.66 0 1.32 0 2 0 C2 0.66 2 1.32 2 2 C3.65 1.67 5.3 1.34 7 1 C6.484375 1.37125 5.96875 1.7425 5.4375 2.125 C3.63680017 4.03173152 3.63680017 4.03173152 4.3125 7.1875 C4.539375 8.115625 4.76625 9.04375 5 10 C4.01 9.67 3.02 9.34 2 9 C1.67 8.34 1.34 7.68 1 7 C0.01 7.495 0.01 7.495 -1 8 C-1.04241723 5.66705225 -1.04092937 3.33297433 -1 1 C-0.67 0.67 -0.34 0.34 0 0 Z " fill="#B4B0A2" transform="translate(72,21)"/>
<path d="M0 0 C2.0625 0.4375 2.0625 0.4375 4 1 C4 1.66 4 2.32 4 3 C5.32 3 6.64 3 8 3 C8 3.66 8 4.32 8 5 C6.68942607 5.36122881 5.37646376 5.71380311 4.0625 6.0625 C3.33160156 6.25972656 2.60070312 6.45695312 1.84765625 6.66015625 C1.23792969 6.77230469 0.62820312 6.88445312 0 7 C-1 6 -1 6 -1.125 3.5 C-1 1 -1 1 0 0 Z " fill="#AEACA4" transform="translate(23,74)"/>
<path d="M0 0 C0 1.98 0 3.96 0 6 C-3.02419525 5.41196203 -6.01758453 4.77321882 -9 4 C-9 3.34 -9 2.68 -9 2 C-5.62902617 0.50178941 -3.79557881 0 0 0 Z " fill="#A6ACAA" transform="translate(104,46)"/>
<path d="M0 0 C0.66 0 1.32 0 2 0 C2 0.99 2 1.98 2 3 C4.44496043 4.71711243 4.44496043 4.71711243 7 6 C3.37673261 7.2077558 2.35853631 6.54311128 -1 5 C-1.33 5.66 -1.66 6.32 -2 7 C-2.33 6.34 -2.66 5.68 -3 5 C-1.6875 2.375 -1.6875 2.375 0 0 Z " fill="#B7BDB5" transform="translate(25,41)"/>
<path d="M0 0 C1.6396875 0.2475 1.6396875 0.2475 3.3125 0.5 C6.87525873 1.06718184 6.87525873 1.06718184 10 1 C9.01 2.98 8.02 4.96 7 7 C6.34 7 5.68 7 5 7 C5 6.01 5 5.02 5 4 C2.53673288 2.3553326 2.53673288 2.3553326 0 1 C0 0.67 0 0.34 0 0 Z " fill="#B8BFBB" transform="translate(94,79)"/>
<path d="M0 0 C0.66 0 1.32 0 2 0 C2 2.64 2 5.28 2 8 C0.35 8 -1.3 8 -3 8 C-3.33 6.35 -3.66 4.7 -4 3 C-2.68 4.32 -1.36 5.64 0 7 C-0.185625 6.401875 -0.37125 5.80375 -0.5625 5.1875 C-1 3 -1 3 0 0 Z " fill="#C1C7BF" transform="translate(61,99)"/>
<path d="M0 0 C2.04119788 1.61594832 4.04072937 3.2856382 6 5 C6 5.66 6 6.32 6 7 C4.68 6.34 3.36 5.68 2 5 C1.34 6.32 0.68 7.64 0 9 C-1.15941038 5.52176885 -0.70820884 3.54104422 0 0 Z " fill="#C5C0AC" transform="translate(80,95)"/>
<path d="M0 0 C1.98 0.495 1.98 0.495 4 1 C3.67 2.32 3.34 3.64 3 5 C1.68 4.67 0.36 4.34 -1 4 C-0.67 2.68 -0.34 1.36 0 0 Z " fill="#22161C" transform="translate(92,86)"/>
<path d="M0 0 C1.32 0.66 2.64 1.32 4 2 C3.67 2.99 3.34 3.98 3 5 C1.68 4.67 0.36 4.34 -1 4 C-0.67 2.68 -0.34 1.36 0 0 Z " fill="#131220" transform="translate(31,36)"/>
<path d="M0 0 C1.32 0.33 2.64 0.66 4 1 C3.67 2.32 3.34 3.64 3 5 C2.01 5 1.02 5 0 5 C0 3.35 0 1.7 0 0 Z " fill="#191210" transform="translate(67,100)"/>
<path d="M0 0 C1.32 0 2.64 0 4 0 C3.67 1.65 3.34 3.3 3 5 C2.01 4.67 1.02 4.34 0 4 C0 2.68 0 1.36 0 0 Z " fill="#191617" transform="translate(28,83)"/>
<path d="M0 0 C0.99 0 1.98 0 3 0 C2.67 1.65 2.34 3.3 2 5 C1.01 5 0.02 5 -1 5 C-0.67 3.35 -0.34 1.7 0 0 Z " fill="#151315" transform="translate(95,39)"/>
<path d="M0 0 C1.32 0 2.64 0 4 0 C3.67 1.65 3.34 3.3 3 5 C2.01 4.67 1.02 4.34 0 4 C0 2.68 0 1.36 0 0 Z " fill="#121116" transform="translate(55,22)"/>
</svg>
