<?xml version="1.0" encoding="UTF-8"?>
<svg version="1.1" xmlns="http://www.w3.org/2000/svg" width="500" height="500">
<path d="M0 0 C165 0 330 0 500 0 C500 165 500 330 500 500 C335 500 170 500 0 500 C0 335 0 170 0 0 Z " fill="#F3F3F3" transform="translate(0,0)"/>
<path d="M0 0 C10.48418045 -0.06979817 20.96830475 -0.12296179 31.45267105 -0.15543652 C36.32204704 -0.17103011 41.19126297 -0.19215191 46.06054688 -0.22631836 C50.76789656 -0.25913834 55.47509317 -0.27690033 60.18254852 -0.28463173 C61.9701147 -0.29013489 63.7576734 -0.30088013 65.54517365 -0.31719017 C75.46655082 -0.40404042 84.46638095 -0.14869086 94 3 C95.14855469 3.37640625 96.29710937 3.7528125 97.48046875 4.140625 C111.29276296 9.80107458 119.04791827 17.95644917 125.01953125 31.484375 C130.05984622 44.41649788 127.94776663 60.84096471 123.484375 73.625 C121.9095012 77.2057657 119.94079194 80.60361411 118 84 C135.49 84 152.98 84 171 84 C171 84.66 171 85.32 171 86 C170.11957031 86.03738281 169.23914063 86.07476562 168.33203125 86.11328125 C167.17058594 86.17902344 166.00914062 86.24476563 164.8125 86.3125 C163.66394531 86.37050781 162.51539063 86.42851562 161.33203125 86.48828125 C157.8074544 87.02957031 155.80502654 87.82234539 153 90 C150.52522658 101.63143509 162.04214871 117.18932292 167.18457031 127.14770508 C168.63319815 129.95337802 170.07494694 132.76250358 171.515625 135.57226562 C172.43970952 137.36999458 173.36417504 139.16752776 174.2890625 140.96484375 C174.71724274 141.79821762 175.14542297 142.63159149 175.58657837 143.49021912 C177.24661282 146.70182703 178.90992095 149.85242968 180.79443359 152.93969727 C182 155 182 155 182 157 C177.93846834 157.23272688 173.87864757 157.37454311 169.8125 157.5 C168.66201172 157.56703125 167.51152344 157.6340625 166.32617188 157.703125 C158.13207217 157.89313311 158.13207217 157.89313311 155.34936523 155.69775391 C153.95207604 153.54402223 153.00249658 151.36517416 152 149 C151.1386115 147.34349335 150.27627135 145.68742816 149.39997864 144.03875732 C148.06165048 141.5074442 146.76763225 138.95427873 145.46966553 136.40209961 C143.71060214 132.94742436 141.93542653 129.50105548 140.16015625 126.0546875 C139.80655029 125.36812073 139.45294434 124.68155396 139.08862305 123.97418213 C135.89935303 117.78995256 132.67109501 111.62808621 129.375 105.5 C128.68555298 104.19554932 128.68555298 104.19554932 127.98217773 102.86474609 C123.47877496 94.03211004 123.47877496 94.03211004 115.93237305 88.2265625 C113.87492542 87.75773215 113.87492542 87.75773215 112.16796875 89.40625 C111.18763672 90.44265625 111.18763672 90.44265625 110.1875 91.5 C96.57999395 104.25703692 79.53013815 105.33951587 61.75 105.125 C56.8825 105.08375 52.015 105.0425 47 105 C47 122.16 47 139.32 47 157 C39.08 157 31.16 157 23 157 C22.99635437 155.22402939 22.99270874 153.44805878 22.98895264 151.61827087 C22.95202455 134.88808289 22.89451258 118.15807762 22.81609726 101.42803097 C22.77631006 92.82677338 22.74391597 84.22560723 22.72900391 75.62426758 C22.71598571 68.12618421 22.68901685 60.62830208 22.64538693 53.13033205 C22.62277575 49.16120447 22.6070891 45.19232507 22.60811615 41.22312737 C22.60886298 37.48424147 22.59090371 33.74590412 22.55883217 30.00716019 C22.54630248 27.98678136 22.55339543 25.96631042 22.56114197 23.94590759 C22.48287516 17.12301328 22.24081848 12.4785777 18 7 C15.77641827 5.38798711 15.77641827 5.38798711 13.25 4.625 C12.38117188 4.32335937 11.51234375 4.02171875 10.6171875 3.7109375 C7.05577864 2.74351002 3.67904574 2.27252191 0 2 C0 1.34 0 0.68 0 0 Z " fill="#3C3A38" transform="translate(135,110)"/>
<path d="M0 0 C33.98451327 0 33.98451327 0 44 9 C55.78936806 21.34323098 54.67842832 40.36200884 54.31640625 56.15625 C53.83239552 68.93829693 52.01017872 82.32218521 43.03125 92.15625 C30.23774426 103.09562447 16.9606259 101 0 101 C0 67.67 0 34.34 0 0 Z " fill="#F2F2F2" transform="translate(182,112)"/>
<path d="M0 0 C8.25 0 16.5 0 25 0 C25.02578125 2.5059375 25.0515625 5.011875 25.078125 7.59375 C25.11662912 10.04307895 25.16176208 12.49220331 25.20751953 14.94140625 C25.23560037 16.63271174 25.25687854 18.32414532 25.27099609 20.015625 C25.29260608 22.45899425 25.33934334 24.90084425 25.390625 27.34375 C25.39185364 28.08991577 25.39308228 28.83608154 25.39434814 29.6048584 C25.54383619 35.06430218 26.88062356 39.46534231 30 44 C34.31225845 47.02582841 38.18238487 47.44256532 43.375 47.6875 C44.62023437 47.75324219 45.86546875 47.81898438 47.1484375 47.88671875 C48.08945312 47.92410156 49.03046875 47.96148437 50 48 C50 48.99 50 49.98 50 51 C25.25 51 0.5 51 -25 51 C-25 50.34 -25 49.68 -25 49 C-23.98679687 48.90203125 -22.97359375 48.8040625 -21.9296875 48.703125 C-20.57802945 48.55294077 -19.22647183 48.40185077 -17.875 48.25 C-17.20984375 48.188125 -16.5446875 48.12625 -15.859375 48.0625 C-10.93842055 47.48356418 -7.76802142 46.21100956 -4 43 C-0.88402261 38.04734848 -0.53481759 33.9889449 -0.48828125 28.3203125 C-0.47033005 27.50754852 -0.45237885 26.69478455 -0.43388367 25.85739136 C-0.38001642 23.2799792 -0.34596164 20.7027497 -0.3125 18.125 C-0.27930601 16.36976638 -0.24481443 14.61455679 -0.20898438 12.859375 C-0.12187724 8.57289383 -0.06161028 4.28722564 0 0 Z " fill="#3E3C3A" transform="translate(304,316)"/>
<path d="M0 0 C5.32247285 0.12557558 8.89619123 2.40996082 13.25 5.3125 C12.92 7.9525 12.59 10.5925 12.25 13.3125 C13.343125 13.291875 14.43625 13.27125 15.5625 13.25 C19.25 13.3125 19.25 13.3125 22.25 14.3125 C22.353125 13.384375 22.45625 12.45625 22.5625 11.5 C23.2570192 8.27995642 23.72740939 7.28670135 26.25 5.3125 C27.04953138 8.59946233 27.34658936 10.02273192 26.25 13.3125 C28.56 13.3125 30.87 13.3125 33.25 13.3125 C33.25 13.6425 33.25 13.9725 33.25 14.3125 C30.61 14.3125 27.97 14.3125 25.25 14.3125 C25.25 16.9525 25.25 19.5925 25.25 22.3125 C27.01440303 23.09694387 27.01440303 23.09694387 29.25 23.3125 C31.61874599 22.12723209 31.61874599 22.12723209 33.875 20.375 C38.07460137 17.3125 38.07460137 17.3125 40.25 17.3125 C40.91 18.9625 41.57 20.6125 42.25 22.3125 C46.67664564 22.61745485 46.67664564 22.61745485 50.625 20.8125 C51.16125 20.3175 51.6975 19.8225 52.25 19.3125 C52.91 19.6425 53.57 19.9725 54.25 20.3125 C54.25 21.6325 54.25 22.9525 54.25 24.3125 C52.31403108 24.53461116 50.37610672 24.73972992 48.4375 24.9375 C46.81908203 25.11152344 46.81908203 25.11152344 45.16796875 25.2890625 C42.25 25.3125 42.25 25.3125 39.25 23.3125 C38.59 23.9725 37.93 24.6325 37.25 25.3125 C36.26 25.3125 35.27 25.3125 34.25 25.3125 C34.25 24.6525 34.25 23.9925 34.25 23.3125 C33.4146875 23.8075 33.4146875 23.8075 32.5625 24.3125 C29.94715478 25.4434601 28.0693354 25.46912974 25.25 25.3125 C24.59 23.9925 23.93 22.6725 23.25 21.3125 C22.198125 21.9725 21.14625 22.6325 20.0625 23.3125 C16.9949278 25.04149524 14.81743119 26.2043578 11.25 25.3125 C8.52491491 22.02360421 7.88853209 19.52962557 8.25 15.3125 C7.425 15.663125 6.6 16.01375 5.75 16.375 C2.25 16.3125 2.25 16.3125 0.0703125 14.55078125 C-5.60140766 8.44510386 -5.60140766 8.44510386 -6.1015625 4.6328125 C-5.47368985 0.48885298 -4.04178785 0.33681565 0 0 Z " fill="#B09F95" transform="translate(167.75,275.6875)"/>
<path d="M0 0 C4.33844765 2.76083032 4.33844765 2.76083032 5.75 5.75 C5.85040818 11.07163359 4.28999057 14.31592033 0.765625 18.10546875 C-4.14521631 22.1121823 -9.91881132 24.75 -16.25 24.75 C-15.59 22.11 -14.93 19.47 -14.25 16.75 C-15.219375 16.46125 -16.18875 16.1725 -17.1875 15.875 C-20.25 14.75 -20.25 14.75 -21.25 12.75 C-21.6536227 9.11739569 -21.54160681 7.25156372 -19.6875 4.0625 C-13.97766085 -1.35452689 -7.34096143 -2.82344671 0 0 Z " fill="#F0EFEF" transform="translate(284.25,276.25)"/>
<path d="M0 0 C16.83 0 33.66 0 51 0 C51 0.66 51 1.32 51 2 C50.1646875 2.02126953 50.1646875 2.02126953 49.3125 2.04296875 C43.03794107 2.43512868 38.61561846 3.63018057 34 8 C32.57426152 10.04597908 31.28355289 12.05018641 30.02734375 14.1953125 C29.64634018 14.83861511 29.26533661 15.48191772 28.87278748 16.14471436 C22.98552765 26.26682119 17.8313604 36.79832742 12.5625 47.25 C10.93334514 50.47171574 9.30261546 53.69262053 7.66990662 56.91253662 C6.66256086 58.90015705 5.65746947 60.88892206 4.65492249 62.87896729 C4.20362473 63.77130066 3.75232697 64.66363403 3.28735352 65.58300781 C2.89258316 66.36605286 2.49781281 67.1490979 2.09107971 67.95587158 C1 70 1 70 -1 73 C-1.99 73 -2.98 73 -4 73 C-2.72674347 69.70955032 -1.32932399 66.56197282 0.29077148 63.4284668 C0.96673622 62.11636482 0.96673622 62.11636482 1.65635681 60.77775574 C2.13972 59.84433853 2.62308319 58.91092133 3.12109375 57.94921875 C4.14920564 55.95123213 5.17719666 53.9531833 6.20507812 51.95507812 C7.82066193 48.82082101 9.43761149 45.68728433 11.05688477 42.55493164 C12.62380732 39.52166198 14.18525772 36.48562379 15.74609375 33.44921875 C16.22743271 32.52187424 16.70877167 31.59452972 17.20469666 30.63908386 C23.09560878 19.38962022 23.09560878 19.38962022 24 7 C19.82717232 2.38008364 13.58310823 2.75182827 7.75 2.4375 C7.00492187 2.39431641 6.25984375 2.35113281 5.4921875 2.30664062 C3.661651 2.20103275 1.83084824 2.10005799 0 2 C0 1.34 0 0.68 0 0 Z " fill="#3E3C3A" transform="translate(343,194)"/>
<path d="M0 0 C0.66 0.33 1.32 0.66 2 1 C1.4268623 4.41115008 0.58891418 7.18047454 -0.99365234 10.25195312 C-1.40432953 11.05628784 -1.81500671 11.86062256 -2.23812866 12.68933105 C-2.68290558 13.54466431 -3.1276825 14.39999756 -3.5859375 15.28125 C-4.04352448 16.17235474 -4.50111145 17.06345947 -4.9725647 17.98156738 C-5.93976826 19.86240453 -6.90992022 21.74172803 -7.8828125 23.61962891 C-9.36814794 26.48677346 -10.84502788 29.35814175 -12.3203125 32.23046875 C-13.26253061 34.06014836 -14.20522324 35.88958371 -15.1484375 37.71875 C-15.58916595 38.57408325 -16.02989441 39.4294165 -16.48397827 40.31066895 C-17.64349839 42.54732039 -18.8179998 44.77517005 -20 47 C-20.53318848 48.01642578 -21.06637695 49.03285156 -21.61572266 50.08007812 C-22.30093994 51.03043945 -22.30093994 51.03043945 -23 52 C-23.99 52 -24.98 52 -26 52 C-24.71488113 48.68013443 -23.30153639 45.50043043 -21.67749023 42.33325195 C-21.22039169 41.43915115 -20.76329315 40.54505035 -20.29234314 39.62385559 C-19.80270584 38.67161606 -19.31306854 37.71937653 -18.80859375 36.73828125 C-18.30328629 35.75127731 -17.79797882 34.76427338 -17.27735901 33.74736023 C-15.66614332 30.60134074 -14.05187874 27.45689735 -12.4375 24.3125 C-11.34680067 22.18434961 -10.25630355 20.05609557 -9.16601562 17.92773438 C-6.77255879 13.25592922 -4.37713312 8.58513942 -1.97996521 3.91523743 C-1.31380476 2.61329791 -0.65403612 1.30807225 0 0 Z " fill="#52514F" transform="translate(365,215)"/>
<path d="M0 0 C4.33844765 2.76083032 4.33844765 2.76083032 5.75 5.75 C5.85040818 11.07163359 4.28999057 14.31592033 0.765625 18.10546875 C-4.14521631 22.1121823 -9.91881132 24.75 -16.25 24.75 C-15.59 22.11 -14.93 19.47 -14.25 16.75 C-16.23 16.09 -18.21 15.43 -20.25 14.75 C-19.92 14.09 -19.59 13.43 -19.25 12.75 C-16.94 13.41 -14.63 14.07 -12.25 14.75 C-11.92 12.77 -11.59 10.79 -11.25 8.75 C-12.24 8.75 -13.23 8.75 -14.25 8.75 C-14.25 8.09 -14.25 7.43 -14.25 6.75 C-12.6 6.75 -10.95 6.75 -9.25 6.75 C-9.58 8.73 -9.91 10.71 -10.25 12.75 C-8.93 13.08 -7.61 13.41 -6.25 13.75 C-9.25 15.75 -9.25 15.75 -12.25 15.75 C-12.58 17.73 -12.91 19.71 -13.25 21.75 C-7.35401577 21.19725148 -2.48284933 17.84329625 1.75 13.875 C3.25965487 10.66698341 3.1935538 8.23506555 2.75 4.75 C-0.20634338 1.8004842 -2.51871568 1.3182511 -6.625 1.3125 C-11.8193605 1.43733109 -14.32554922 2.42931088 -18.25 5.75 C-19.24 6.245 -19.24 6.245 -20.25 6.75 C-18.50374069 2.53061202 -16.44012679 1.35902274 -12.40234375 -0.48828125 C-7.85836353 -2.09640492 -4.42912504 -1.70350963 0 0 Z " fill="#AF9F95" transform="translate(284.25,276.25)"/>
<path d="M0 0 C5.32247285 0.12557558 8.89619123 2.40996082 13.25 5.3125 C12.92 7.9525 12.59 10.5925 12.25 13.3125 C13.343125 13.291875 14.43625 13.27125 15.5625 13.25 C19.25 13.3125 19.25 13.3125 22.25 14.3125 C22.353125 13.384375 22.45625 12.45625 22.5625 11.5 C23.2570192 8.27995642 23.72740939 7.28670135 26.25 5.3125 C27.04953138 8.59946233 27.34658936 10.02273192 26.25 13.3125 C28.56 13.3125 30.87 13.3125 33.25 13.3125 C33.25 13.6425 33.25 13.9725 33.25 14.3125 C30.61 14.3125 27.97 14.3125 25.25 14.3125 C24.59 15.9625 23.93 17.6125 23.25 19.3125 C22.92 17.9925 22.59 16.6725 22.25 15.3125 C16.31 15.8075 16.31 15.8075 10.25 16.3125 C9.92 14.9925 9.59 13.6725 9.25 12.3125 C6.28 11.8175 6.28 11.8175 3.25 11.3125 C3.25 10.9825 3.25 10.6525 3.25 10.3125 C5.23 10.3125 7.21 10.3125 9.25 10.3125 C9.25 8.6625 9.25 7.0125 9.25 5.3125 C3.51709085 2.60405119 3.51709085 2.60405119 -2.75 2.3125 C-2.9665625 3.240625 -2.9665625 3.240625 -3.1875 4.1875 C-3.75 6.3125 -3.75 6.3125 -4.75 8.3125 C-5.75 7.3125 -5.75 7.3125 -5.9375 4.875 C-5.61954296 0.52958718 -4.18813403 0.34901117 0 0 Z " fill="#A49185" transform="translate(167.75,275.6875)"/>
<path d="M0 0 C5.21530312 0.34768687 8.66375707 0.8833254 13 4 C12.67 5.65 12.34 7.3 12 9 C10.35 9.33 8.7 9.66 7 10 C8.32 10.66 9.64 11.32 11 12 C8.4375 13 8.4375 13 5 13 C2.12690646 10.72969275 -0.20376862 8.19648844 -2 5 C-1.75652806 2.81648177 -1.5649042 1.5649042 0 0 Z " fill="#F2F2F2" transform="translate(165,277)"/>
<path d="M0 0 C0.99 0 1.98 0 3 0 C2.48553951 4.42436025 1.38617933 7.26511061 -1 11 C-1 11.66 -1 12.32 -1 13 C0.65 12.67 2.3 12.34 4 12 C3.01 12.99 2.02 13.98 1 15 C5.82360189 15.19294408 9.49646738 14.75747614 14 13 C14 13.66 14 14.32 14 15 C9.01458676 17.44183506 5.6607195 18.32657997 0 18 C-0.99 18 -1.98 18 -3 18 C-3.66 17.34 -4.32 16.68 -5 16 C-5.99 15.67 -6.98 15.34 -8 15 C-7.01 14.34 -6.02 13.68 -5 13 C-4.05475854 10.42429645 -4.05475854 10.42429645 -3.4375 7.5 C-2.20411664 2.20411664 -2.20411664 2.20411664 0 0 Z " fill="#AE9C92" transform="translate(241,283)"/>
<path d="M0 0 C0.99 0.33 1.98 0.66 3 1 C3 1.99 3 2.98 3 4 C9.22414458 2.61189751 9.22414458 2.61189751 15 0 C15.99 0.66 16.98 1.32 18 2 C17.37609375 2.54140625 16.7521875 3.0828125 16.109375 3.640625 C13.69489712 6.34126322 13.08237083 8.25404252 12.25 11.75 C12.00765625 12.73484375 11.7653125 13.7196875 11.515625 14.734375 C11.34546875 15.48203125 11.1753125 16.2296875 11 17 C10.34 17 9.68 17 9 17 C9.54855348 12.428721 10.41744803 8.32564205 12 4 C8.7 4.66 5.4 5.32 2 6 C1.34 5.01 0.68 4.02 0 3 C-0.66 3.66 -1.32 4.32 -2 5 C-5.78735524 6.89367762 -8.79117368 7.19575936 -13 7 C-13 6.01 -13 5.02 -13 4 C-12.34 4.268125 -11.68 4.53625 -11 4.8125 C-6.92130002 5.06741875 -5.08393478 3.38435696 -1.8671875 1.03125 C-1.25101562 0.6909375 -0.63484375 0.350625 0 0 Z " fill="#A9978C" transform="translate(356,294)"/>
<path d="M0 0 C1.51400391 0.01740234 1.51400391 0.01740234 3.05859375 0.03515625 C4.07050781 0.04417969 5.08242187 0.05320312 6.125 0.0625 C7.29869141 0.07990234 7.29869141 0.07990234 8.49609375 0.09765625 C7.96138164 3.97592959 7.81872982 4.82520802 4.68359375 7.47265625 C1.49609375 9.09765625 1.49609375 9.09765625 -0.81640625 8.91015625 C-2.50390625 8.09765625 -2.50390625 8.09765625 -3.50390625 7.09765625 C-3.62890625 4.09765625 -3.62890625 4.09765625 -3.50390625 1.09765625 C-2.50390625 0.09765625 -2.50390625 0.09765625 0 0 Z " fill="#F1F1F0" transform="translate(181.50390625,290.90234375)"/>
<path d="M0 0 C1 1 1 1 1.1875 4.75 C1.15615249 8.23584286 0.57760458 10.84479083 -1 14 C0.32 14 1.64 14 3 14 C3 14.66 3 15.32 3 16 C2.236875 16.061875 1.47375 16.12375 0.6875 16.1875 C-2.23051809 16.76935262 -2.23051809 16.76935262 -3.8125 19.5625 C-4.204375 20.366875 -4.59625 21.17125 -5 22 C-5.33 21.34 -5.66 20.68 -6 20 C-5.0625 17.875 -5.0625 17.875 -4 16 C-4.99 15.67 -5.98 15.34 -7 15 C-5.68 14.67 -4.36 14.34 -3 14 C-2.67 12.7625 -2.34 11.525 -2 10.25 C-1.814375 9.55390625 -1.62875 8.8578125 -1.4375 8.140625 C-0.86650651 5.71098139 -0.86650651 5.71098139 -1 2 C-5.269321 1.58143912 -7.3303705 1.51961362 -10.875 4.0625 C-13.92093025 8.27305063 -14 11.92891316 -14 17 C-16 15 -16 15 -16.375 11.75 C-15.83759295 6.37592945 -13.7821582 3.49315958 -9.6875 0.0625 C-6.11571533 -1.34960092 -3.69359858 -0.8523689 0 0 Z " fill="#AE9D93" transform="translate(103,275)"/>
<path d="M0 0 C0.99 0 1.98 0 3 0 C1.9170418 12.12913183 1.9170418 12.12913183 -1 16 C-3.95352373 17.26954306 -6.80883675 17.73239721 -10 18 C-8.03617993 16.49440461 -6.21736634 15.10868317 -4 14 C-3.38271587 11.5196061 -3.38271587 11.5196061 -3 8.625 C-2.45384568 4.9287056 -2.1101805 3.16527075 0 0 Z " fill="#BBADA4" transform="translate(343,282)"/>
<path d="M0 0 C0.66 0 1.32 0 2 0 C1.42770367 5.19228855 -1.0982161 9.3103703 -3.5625 13.8125 C-3.98724609 14.60076172 -4.41199219 15.38902344 -4.84960938 16.20117188 C-5.89396554 18.1373378 -6.9442077 20.07005367 -8 22 C-8.99 22 -9.98 22 -11 22 C-9.23465356 17.15984684 -6.80463275 12.7164873 -4.375 8.1875 C-3.95476562 7.39923828 -3.53453125 6.61097656 -3.1015625 5.79882812 C-2.0699991 3.86464674 -1.03608828 1.93176017 0 0 Z " fill="#565453" transform="translate(350,245)"/>
<path d="M0 0 C0.99 0.33 1.98 0.66 3 1 C2.67 1.99 2.34 2.98 2 4 C0.68 4 -0.64 4 -2 4 C-2 4.66 -2 5.32 -2 6 C1.63 6 5.26 6 9 6 C7 8 7 8 3.125 8.25 C-0.13302102 8.18519307 -2.1369277 7.59059572 -5 6 C-5.99 6.33 -6.98 6.66 -8 7 C-9.72795352 7.06802967 -11.45835365 7.08495645 -13.1875 7.0625 C-14.53908203 7.04896484 -14.53908203 7.04896484 -15.91796875 7.03515625 C-16.60503906 7.02355469 -17.29210937 7.01195312 -18 7 C-16.68 5.68 -15.36 4.36 -14 3 C-14 3.99 -14 4.98 -14 6 C-12.2273959 5.38003999 -10.45697333 4.75384007 -8.6875 4.125 C-7.70136719 3.77695312 -6.71523438 3.42890625 -5.69921875 3.0703125 C-2.84405623 2.04694076 -2.84405623 2.04694076 0 0 Z " fill="#AE9D93" transform="translate(389,293)"/>
<path d="M0 0 C-0.33 1.32 -0.66 2.64 -1 4 C-2.32 4 -3.64 4 -5 4 C-5.33 4.66 -5.66 5.32 -6 6 C-9.44573777 7.14857926 -12.15624655 7.03468706 -15.74609375 6.9375 C-17.98202025 6.99950143 -19.85919489 7.3758017 -22 8 C-22.12375 7.360625 -22.2475 6.72125 -22.375 6.0625 C-22.684375 5.0415625 -22.684375 5.0415625 -23 4 C-23.66 3.67 -24.32 3.34 -25 3 C-24.01 2.67 -23.02 2.34 -22 2 C-21.34 3.32 -20.68 4.64 -20 6 C-19.67 4.35 -19.34 2.7 -19 1 C-18.34 1 -17.68 1 -17 1 C-16.67 2.32 -16.34 3.64 -16 5 C-9.72139838 4.57433209 -5.37748071 0 0 0 Z " fill="#AC9A90" transform="translate(329,293)"/>
<path d="M0 0 C0.33 1.32 0.66 2.64 1 4 C2.32 4 3.64 4 5 4 C5 5.32 5 6.64 5 8 C5.68707031 7.7834375 6.37414062 7.566875 7.08203125 7.34375 C7.98308594 7.0653125 8.88414062 6.786875 9.8125 6.5 C10.70582031 6.2215625 11.59914063 5.943125 12.51953125 5.65625 C15 5 15 5 18 5 C14.55619717 7.75504226 12.22296038 9.29874028 7.75 9.4375 C6.5125 9.293125 5.275 9.14875 4 9 C3.34 8.01 2.68 7.02 2 6 C0.8553125 6.5259375 0.8553125 6.5259375 -0.3125 7.0625 C-3 8 -3 8 -6 7 C-5.38125 6.5875 -4.7625 6.175 -4.125 5.75 C-1.93231719 3.94426121 -1.07211583 2.5909466 0 0 Z " fill="#AE9D92" transform="translate(404,291)"/>
<path d="M0 0 C4.8995435 0.12448931 8.46700108 1.70780097 12.125 5 C12.49625 5.433125 12.8675 5.86625 13.25 6.3125 C12.59 7.6325 11.93 8.9525 11.25 10.3125 C10.59 10.3125 9.93 10.3125 9.25 10.3125 C9.25 8.6625 9.25 7.0125 9.25 5.3125 C3.51709085 2.60405119 3.51709085 2.60405119 -2.75 2.3125 C-2.9665625 3.240625 -2.9665625 3.240625 -3.1875 4.1875 C-3.75 6.3125 -3.75 6.3125 -4.75 8.3125 C-5.75 7.3125 -5.75 7.3125 -5.9375 4.875 C-5.61954296 0.52958718 -4.18813403 0.34901117 0 0 Z " fill="#B0A096" transform="translate(167.75,275.6875)"/>
<path d="M0 0 C0.66 0 1.32 0 2 0 C2.66 1.65 3.32 3.3 4 5 C8.42664564 5.30495485 8.42664564 5.30495485 12.375 3.5 C13.179375 2.7575 13.179375 2.7575 14 2 C14.66 2.33 15.32 2.66 16 3 C16 4.32 16 5.64 16 7 C14.06403108 7.22211116 12.12610672 7.42722992 10.1875 7.625 C8.56908203 7.79902344 8.56908203 7.79902344 6.91796875 7.9765625 C4 8 4 8 1 6 C0.01 6.495 0.01 6.495 -1 7 C-0.7525 6.1028125 -0.7525 6.1028125 -0.5 5.1875 C0.1114124 2.88655664 0.1114124 2.88655664 0 0 Z " fill="#AE9D93" transform="translate(206,293)"/>
<path d="M0 0 C0.66 0.33 1.32 0.66 2 1 C1.67 3.31 1.34 5.62 1 8 C3.31 8 5.62 8 8 8 C8 8.33 8 8.66 8 9 C5.36 9 2.72 9 0 9 C0 9.66 0 10.32 0 11 C-0.66 11 -1.32 11 -2 11 C-2.94693195 7.2983569 -3.30443767 5.60887535 -1.5625 2.125 C-1.046875 1.42375 -0.53125 0.7225 0 0 Z " fill="#B4A59C" transform="translate(193,281)"/>
<path d="M0 0 C2.475 0.495 2.475 0.495 5 1 C5.33 1.99 5.66 2.98 6 4 C5.01 5.485 5.01 5.485 4 7 C2.68 7 1.36 7 0 7 C0 4.69 0 2.38 0 0 Z " fill="#ADACAC" transform="translate(222,324)"/>
<path d="M0 0 C0.33 0.66 0.66 1.32 1 2 C0.00390625 4.3828125 0.00390625 4.3828125 -1.4375 7.125 C-1.91058594 8.03507813 -2.38367188 8.94515625 -2.87109375 9.8828125 C-3.24363281 10.58148438 -3.61617188 11.28015625 -4 12 C-4.66 11.67 -5.32 11.34 -6 11 C-3.76687117 3.98159509 -3.76687117 3.98159509 -2 1 C-1.34 0.67 -0.68 0.34 0 0 Z " fill="#454341" transform="translate(357,234)"/>
<path d="M0 0 C0.99 0 1.98 0 3 0 C3 0.99 3 1.98 3 3 C2.34 3 1.68 3 1 3 C0.34 4.98 -0.32 6.96 -1 9 C-2.1875 7.3125 -2.1875 7.3125 -3 5 C-1.8125 2.25 -1.8125 2.25 0 0 Z " fill="#C8BDB6" transform="translate(241,283)"/>
<path d="M0 0 C0.66 0 1.32 0 2 0 C2 2.31 2 4.62 2 7 C1.34 7 0.68 7 0 7 C-0.33 6.34 -0.66 5.68 -1 5 C-1.66 5.66 -2.32 6.32 -3 7 C-3 5.02 -3 3.04 -3 1 C-2.01 1.495 -2.01 1.495 -1 2 C-0.67 1.34 -0.34 0.68 0 0 Z " fill="#9D9C9B" transform="translate(173,324)"/>
<path d="M0 0 C2.475 0.495 2.475 0.495 5 1 C4.34 2.32 3.68 3.64 3 5 C2.34 5 1.68 5 1 5 C0.67 5.66 0.34 6.32 0 7 C0 4.69 0 2.38 0 0 Z " fill="#9E9D9C" transform="translate(113,324)"/>
<path d="M0 0 C0.33 0 0.66 0 1 0 C0.85892253 1.45880109 0.71197585 2.91703551 0.5625 4.375 C0.48128906 5.18710937 0.40007812 5.99921875 0.31640625 6.8359375 C0 9 0 9 -1 11 C-1.66 11 -2.32 11 -3 11 C-2.53199289 6.94393835 -2.12046792 3.53411321 0 0 Z " fill="#A49084" transform="translate(368,300)"/>
<path d="M0 0 C2.125 0.375 2.125 0.375 4 1 C3.34 2.65 2.68 4.3 2 6 C1.01 6 0.02 6 -1 6 C-1.625 4.125 -1.625 4.125 -2 2 C-1.34 1.34 -0.68 0.68 0 0 Z " fill="#BDB0A8" transform="translate(203,295)"/>
<path d="M0 0 C0.66 0 1.32 0 2 0 C1.45276317 3.37462715 0.9451 5.08235 -1 8 C-1.66 8 -2.32 8 -3 8 C-2.45276317 4.62537285 -1.9451 2.91765 0 0 Z " fill="#4F4D4C" transform="translate(350,245)"/>
<path d="M0 0 C-0.33 1.32 -0.66 2.64 -1 4 C-2.32 4 -3.64 4 -5 4 C-5.33 4.66 -5.66 5.32 -6 6 C-5.625 3.5625 -5.625 3.5625 -5 1 C-3 0 -3 0 0 0 Z " fill="#B1A197" transform="translate(294,293)"/>
<path d="M0 0 C2 1 2 1 3.125 4.0625 C3.41375 5.031875 3.7025 6.00125 4 7 C3.34 7 2.68 7 2 7 C2 6.34 2 5.68 2 5 C1.01 5 0.02 5 -1 5 C-1.33 5.66 -1.66 6.32 -2 7 C-1.125 2.25 -1.125 2.25 0 0 Z " fill="#91908F" transform="translate(238,324)"/>
<path d="M0 0 C2 1 2 1 3.125 4.0625 C3.41375 5.031875 3.7025 6.00125 4 7 C3.34 7 2.68 7 2 7 C2 6.34 2 5.68 2 5 C1.01 5 0.02 5 -1 5 C-1.33 5.66 -1.66 6.32 -2 7 C-1.125 2.25 -1.125 2.25 0 0 Z " fill="#91908F" transform="translate(128,324)"/>
<path d="M0 0 C1.5625 1.8125 1.5625 1.8125 3 4 C2.67 4.99 2.34 5.98 2 7 C2 6.34 2 5.68 2 5 C1.01 5 0.02 5 -1 5 C-1 5.66 -1 6.32 -1 7 C-1.66 6.67 -2.32 6.34 -3 6 C-2.01 4.02 -1.02 2.04 0 0 Z " fill="#91908F" transform="translate(210,324)"/>
<path d="M0 0 C1.5625 1.8125 1.5625 1.8125 3 4 C2.67 4.99 2.34 5.98 2 7 C2 6.34 2 5.68 2 5 C1.01 5 0.02 5 -1 5 C-1 5.66 -1 6.32 -1 7 C-1.66 6.67 -2.32 6.34 -3 6 C-2.01 4.02 -1.02 2.04 0 0 Z " fill="#91908F" transform="translate(158,324)"/>
<path d="M0 0 C0.99 0 1.98 0 3 0 C4.0730756 3.2192268 3.79946725 3.90206442 3 7 C3.33 7.66 3.66 8.32 4 9 C2.68 9 1.36 9 0 9 C0.66 6.36 1.32 3.72 2 1 C1.34 0.67 0.68 0.34 0 0 Z " fill="#BBADA5" transform="translate(268,292)"/>
</svg>
